<?xml version="1.0" encoding="utf-8"?>
<!-- Generator: Adobe Illustrator 21.1.0, SVG Export Plug-In . SVG Version: 6.00 Build 0)  -->
<svg version="1.1" id="Layer_1" xmlns="http://www.w3.org/2000/svg" xmlns:xlink="http://www.w3.org/1999/xlink" x="0px" y="0px"
	 viewBox="0 0 24 24" style="enable-background:new 0 0 24 24;" xml:space="preserve">
<style type="text/css">
	.st0{opacity:0.62;fill:#FFFFFF;}
</style>
<title>envelope-square</title>
<path class="st0" d="M19.5,0C22,0,24,2,24,4.5v15c0,2.5-2,4.5-4.5,4.5h-15C2,24,0,22,0,19.5v-15C0,2,2,0,4.5,0H19.5z M20,16.5V9.7
	c-0.3,0.3-0.6,0.6-1,0.9c-1.5,1-3,1.9-4.4,2.9c-0.7,0.5-1.6,1.1-2.6,1.1l0,0l0,0l0,0l0,0c-0.9,0-1.8-0.6-2.6-1.1
	c-1.5-1-3-1.9-4.4-2.9C4.6,10.3,4.4,10,4,9.7v6.8C4,17.3,4.7,18,5.5,18h13C19.3,18,20,17.3,20,16.5L20,16.5z M20,7.5
	C20,6.7,19.4,6,18.5,6h-13C4.7,6,4,6.7,4,7.5c0,0.8,0.9,1.8,1.5,2.2c1.4,0.9,2.8,1.8,4.2,2.7c0.6,0.4,1.6,1.1,2.3,1.1
	s1.7-0.7,2.3-1.1c1.4-0.9,2.8-1.8,4.2-2.7C19.1,9.3,20,8.3,20,7.5z"/>
</svg>
