<?xml version="1.0" encoding="utf-8"?>
<!-- Generator: Adobe Illustrator 21.1.0, SVG Export Plug-In . SVG Version: 6.00 Build 0)  -->
<svg version="1.1" id="Layer_1" xmlns="http://www.w3.org/2000/svg" xmlns:xlink="http://www.w3.org/1999/xlink" x="0px" y="0px"
	 viewBox="0 0 24 24" style="enable-background:new 0 0 24 24;" xml:space="preserve">
<style type="text/css">
	.st0{opacity:0.62;fill:#FFFFFF;}
</style>
<title>square</title>
<g>
	<path class="st0" d="M13,11.4l-2.5-1.3c-0.3,0.1-0.5,0.3-0.7,0.6c-0.1,0.2-0.1,0.3-0.1,0.5c0,0.3,0.1,0.5,0.4,0.8
		c0.1,0.1,0.4,0.3,0.7,0.5l2.4,1.3c0.2-0.1,0.4-0.2,0.5-0.4c0.2-0.2,0.3-0.5,0.3-0.8c0-0.3-0.1-0.5-0.4-0.8
		C13.5,11.7,13.3,11.5,13,11.4z"/>
	<path class="st0" d="M19.5,0h-15C2,0,0,2,0,4.5v15C0,22,2,24,4.5,24h15c2.5,0,4.5-2,4.5-4.5v-15C24,2,22,0,19.5,0z M15.2,15.3
		c0.3,0.4,0.4,0.9,0.4,1.5c0,1.1-0.4,2-1.1,2.6c-0.8,0.6-1.6,0.9-2.6,0.9c-1,0-1.9-0.3-2.6-0.8s-1.1-1.4-1.2-2.6h2.3
		c0.1,0.4,0.2,0.7,0.3,0.9c0.2,0.3,0.6,0.5,1.2,0.5c0.3,0,0.6-0.1,0.9-0.3s0.4-0.5,0.4-0.8c0-0.3-0.1-0.6-0.4-0.8
		c-0.3-0.2-1-0.7-2.2-1.3c-1-0.5-1.8-1-2.2-1.3c-0.6-0.5-0.9-1.2-0.9-2c0-0.7,0.2-1.3,0.6-1.8c0.2-0.3,0.6-0.5,1-0.8
		C9.1,9.1,8.9,8.8,8.6,8.5C8.4,8.1,8.3,7.6,8.3,7.1c0-0.9,0.3-1.6,0.9-2.3c0.6-0.6,1.5-1,2.7-1c1.4,0,2.4,0.5,3,1.4
		c0.3,0.5,0.5,1.1,0.6,1.9h-2.2c0-0.4-0.1-0.6-0.3-0.8c-0.2-0.4-0.6-0.5-1.2-0.5c-0.4,0-0.7,0.1-0.9,0.3s-0.3,0.4-0.3,0.8
		c0,0.4,0.2,0.7,0.6,0.9s1.1,0.6,2.2,1.1c1.9,0.9,2.8,1.9,2.8,3.1c0,0.7-0.2,1.4-0.7,1.8c-0.2,0.3-0.6,0.5-1.1,0.8
		C14.8,14.8,15.1,15.1,15.2,15.3z"/>
</g>
</svg>
