<?xml version="1.0" encoding="utf-8"?>
<!-- Generator: Adobe Illustrator 21.1.0, SVG Export Plug-In . SVG Version: 6.00 Build 0)  -->
<svg version="1.1" id="Layer_1" xmlns="http://www.w3.org/2000/svg" xmlns:xlink="http://www.w3.org/1999/xlink" x="0px" y="0px"
	 viewBox="0 0 24 24" style="enable-background:new 0 0 24 24;" xml:space="preserve">
<style type="text/css">
	.st0{opacity:0.62;fill:#FFFFFF;}
</style>
<title>linkedin-square</title>
<path class="st0" d="M3.7,20.1h3.6V9.2H3.7C3.7,9.2,3.7,20.1,3.7,20.1z M7.5,5.9c0-1.1-0.8-1.9-2-1.9s-2,0.8-2,1.9
	c0,1,0.8,1.9,2,1.9h0C6.8,7.8,7.5,6.9,7.5,5.9z M16.7,20.1h3.6v-6.2c0-3.3-1.8-4.9-4.2-4.9c-1.9,0-2.8,1.1-3.3,1.8h0V9.2H9.3
	c0,0,0,1,0,10.8l0,0h3.6V14c0-0.3,0-0.6,0.1-0.9c0.3-0.6,0.9-1.3,1.9-1.3c1.3,0,1.8,1,1.8,2.5L16.7,20.1L16.7,20.1z M24,4.5v15
	c0,2.5-2,4.5-4.5,4.5h-15C2,24,0,22,0,19.5v-15C0,2,2,0,4.5,0h15C22,0,24,2,24,4.5z"/>
</svg>
