<?xml version="1.0" encoding="utf-8"?>
<!-- Generator: Adobe Illustrator 18.1.1, SVG Export Plug-In . SVG Version: 6.00 Build 0)  -->
<svg version="1.1" id="magic" xmlns="http://www.w3.org/2000/svg" xmlns:xlink="http://www.w3.org/1999/xlink" x="0px" y="0px"
	 viewBox="-80 -80 400 400" enable-background="new 0 0 240 240" xml:space="preserve">

<rect x="-80" y="-90" width="100%" height="420" fill="#fff"></rect>
    
<path id="stick" fill="#244B59" d="M230,20V10h-10l0-10h0h-20h-10v10h-10v10h-10v10h-10v10h-10v10h-10v10h-10v10h-10v10h-10v10h-10
	v10H90v10H80v10H70v10H60v10H50v10H40v10H30v10H20v10H10v10H0v10v10h10v10h10v10h10v10h10h10v-10h10v-10h10v-10h10v-10h10v-10h10
	v-10h10v-10h10v-10h10v-10h10v-10h10v-10h10v-10h10v-10h10v-10h10V90h10V80h10V70h10V60h10V50h10V40V20H230z M220,40h-10v10h-10v10
	h-10v10h-10v10h-10V70h0h-10V60h10V50h10V40h10V30h10V20h10v10h10V40z"/>
<g id="stars">
	<polygon id="starBig" fill="#FF6D00" points="110,40 100,40 100,30 90,30 90,20 90,10 80,10 80,20 80,30 70,30 70,40 60,40 50,40 
		50,50 60,50 70,50 70,60 80,60 80,70 80,80 90,80 90,70 90,60 100,60 100,50 110,50 120,50 120,40 	"/>
	<polygon id="starSmall3" fill="#FF6D00" points="40,10 40,0 30,0 30,10 20,10 20,20 30,20 30,30 40,30 40,20 50,20 50,10 	"/>
	<polygon id="starSmall2" fill="#FF6D00" points="130,10 130,0 120,0 120,10 110,10 110,20 120,20 120,30 130,30 130,20 140,20 
		140,10 	"/>
	<polygon id="starSmall1" fill="#FF6D00" points="230,110 230,100 220,100 220,110 210,110 210,120 220,120 220,130 230,130 
		230,120 240,120 240,110 	"/>
</g>
    
<animate xlink:href="#starBig" attributeName="opacity" dur="2" values="0.5;1;0.5" repeatCount="indefinite"></animate>    
<animate xlink:href="#starSmall1" attributeName="opacity" dur="1.5" values="0.5;1;0.5" repeatCount="indefinite" begin="1s"></animate>    
<animate xlink:href="#starSmall2" attributeName="opacity" dur="1.5" values="0.5;1;0.5" repeatCount="indefinite" begin="0.5s"></animate>    
<animate xlink:href="#starSmall3" attributeName="opacity" dur="1.5" values="0.5;1;0.5" repeatCount="indefinite" begin="1.5s"></animate>     
</svg>
