<?xml version="1.0" encoding="utf-8"?>
<!-- Generator: Adobe Illustrator 18.1.1, SVG Export Plug-In . SVG Version: 6.00 Build 0)  -->
<svg version="1.1" id="diamond_1_" xmlns="http://www.w3.org/2000/svg" xmlns:xlink="http://www.w3.org/1999/xlink" x="0px" y="0px"
	 viewBox="-80 -80 400 400" enable-background="new 0 0 240 240" xml:space="preserve">

<rect x="-80" y="-90" width="100%" height="420" fill="#fff"></rect>
    
    
<g id="diamond">
	<g>
		<polygon fill="#244B59" points="220,90 220,100 180,100 170,100 170,130 210,130 210,140 220,140 220,120 230,120 230,90 		"/>
		<rect x="110" y="230" fill="#244B59" width="10" height="10"/>
		<polygon fill="#244B59" points="60,130 60,100 50,100 10,100 10,90 0,90 0,110 0,120 10,120 10,140 20,140 20,130 		"/>
		<polygon fill="#244B59" points="160,150 150,150 150,170 140,170 140,190 130,190 130,210 120,210 120,230 130,230 130,220 
			140,220 140,210 150,210 150,200 160,200 160,190 170,190 170,180 180,180 180,170 190,170 190,160 200,160 200,150 210,150 
			210,140 160,140 		"/>
		<polygon fill="#244B59" points="60,80 70,80 70,60 80,60 80,50 90,50 90,40 100,40 100,50 90,50 90,60 80,60 80,90 90,90 100,90 
			130,90 140,90 150,90 150,60 140,60 140,50 130,50 130,40 140,40 140,50 150,50 150,60 160,60 160,80 170,80 170,90 220,90 
			220,70 210,70 210,60 200,60 200,50 190,50 190,40 180,40 180,30 130,30 130,40 120,40 120,30 110,30 110,40 100,40 100,30 50,30 
			50,40 40,40 40,50 30,50 30,60 20,60 20,70 10,70 10,90 60,90 		"/>
		<polygon fill="#244B59" points="100,210 100,190 90,190 90,170 80,170 80,150 70,150 70,140 20,140 20,150 30,150 30,160 40,160 
			40,170 50,170 50,180 60,180 60,190 70,190 70,200 80,200 80,210 90,210 90,220 100,220 100,230 110,230 110,210 		"/>
	</g>
	<polygon fill="#244B59" points="70,100 70,120 80,120 80,130 150,130 150,120 160,120 160,100 	"/>
	<polygon fill="#244B59" points="150,140 140,140 90,140 80,140 80,150 90,150 90,170 100,170 100,190 110,190 110,210 120,210 
		120,190 130,190 130,170 140,170 140,150 150,150 	"/>
</g>
<g id="glitter2">
	<rect x="210" y="50" fill="#FF6D00" width="10" height="10"/>
	<rect x="220" y="40" fill="#FF6D00" width="10" height="10"/>
	<rect x="210" y="90" fill="#FF6D00" width="10" height="10"/>
	<rect x="220" y="100" fill="#FF6D00" width="10" height="10"/>
	<rect x="170" y="50" fill="#FF6D00" width="10" height="10"/>
	<rect x="160" y="40" fill="#FF6D00" width="10" height="10"/>
	<rect x="170" y="90" fill="#FF6D00" width="10" height="10"/>
	<rect x="160" y="100" fill="#FF6D00" width="10" height="10"/>
	<polygon fill="#FF6D00" points="230,70 220,70 210,70 210,60 200,60 200,50 200,40 200,30 190,30 190,40 190,50 190,60 180,60 
		180,70 170,70 160,70 150,70 150,80 160,80 170,80 180,80 180,90 190,90 190,100 190,110 190,120 200,120 200,110 200,100 200,90 
		210,90 210,80 220,80 230,80 240,80 240,70 	"/>
</g>
<g id="glitter1">
	<rect x="50" y="10" fill="#FF6D00" width="10" height="10"/>
	<rect x="50" y="50" fill="#FF6D00" width="10" height="10"/>
	<rect x="10" y="10" fill="#FF6D00" width="10" height="10"/>
	<rect x="10" y="50" fill="#FF6D00" width="10" height="10"/>
	<polygon fill="#FF6D00" points="60,30 50,30 50,20 40,20 40,10 40,0 30,0 30,10 30,20 20,20 20,30 10,30 0,30 0,40 10,40 20,40 
		20,50 30,50 30,60 30,70 40,70 40,60 40,50 50,50 50,40 60,40 70,40 70,30 	"/>
</g>
    
<animate xlink:href="#glitter1" attributeName="opacity" dur="6s" values="1;0;1" repeatCount="indefinite"></animate>
<animate xlink:href="#glitter2" attributeName="opacity" dur="4s" values="0;1;1;0" repeatCount="indefinite"></animate>    
    
</svg>
