<?xml version="1.0" encoding="utf-8"?>
<!-- Generator: Adobe Illustrator 18.1.1, SVG Export Plug-In . SVG Version: 6.00 Build 0)  -->
<svg version="1.1" id="magic" xmlns="http://www.w3.org/2000/svg" xmlns:xlink="http://www.w3.org/1999/xlink" x="0px" y="0px"
	 viewBox="-80 -80 400 400" enable-background="new 0 0 240 240" xml:space="preserve">

<rect x="-80" y="-90" width="100%" height="420" fill="#fff"></rect>
    
<g id="bars">  
    <polygon points="10,30 230,30 230,40 240,40 240,50 0,50 0,40 10,40z" fill="#244B59"></polygon>
    <polygon points="10,110 240,110 240,120 230,120 230,130 0,130 0,120 10,120" fill="#244B59"></polygon>
    <polygon points="0,190 240,190 240,200 230,200 230,210 10,210 10,200 0,200" fill="#244B59"></polygon>


</g>
    
<g id="set3">
	<polygon fill="#FFFFFF" points="110,13 97,13 97,0 43,0 43,13 30,13 30,67 43,67 43,80 97,80 97,67 110,67 	"/>
	<polygon fill="#FF6D00" opacity=".8" points="100,30 90,30 90,20 80,20 80,10 60,10 60,20 50,20 50,30 40,30 40,50 50,50 50,60 60,60 60,70 
		80,70 80,60 90,60 90,50 100,50 	"/>
</g>
<g id="set2">
	<polygon fill="#FFFFFF" points="210,93 197,93 197,80 143,80 143,93 130,93 130,147 143,147 143,160 197,160 197,147 210,147 	"/>
	<polygon fill="#FF6D00" opacity=".8" points="200,110 190,110 190,100 180,100 180,90 160,90 160,100 150,100 150,110 140,110 140,130 150,130 
		150,140 160,140 160,150 180,150 180,140 190,140 190,130 200,130 	"/>
</g>
<g id="set1">
	<polygon fill="#FFFFFF" points="130,173 117,173 117,160 63,160 63,173 50,173 50,227 63,227 63,240 117,240 117,227 130,227 	"/>
	<polygon fill="#FF6D00" opacity=".8" points="120,190 110,190 110,180 100,180 100,170 80,170 80,180 70,180 70,190 60,190 60,210 70,210 
		70,220 80,220 80,230 100,230 100,220 110,220 110,210 120,210 	"/>
</g>
    
<animateTransform id="animation1" xlink:href="#set1" attributeName="transform" type="translate" 
                  values="0,0;10,0;20,0;30,0;20,0;10,0;0,0" dur="4s" repeatCount="indefinite"></animateTransform>   
<animateTransform id="animation2" xlink:href="#set2" attributeName="transform" type="translate" 
                  values="0,0;-10,0;-20,0;-30,0;-20,0;-10,0;0,0" dur="4s" repeatCount="indefinite"></animateTransform>   
<animateTransform id="animation3" xlink:href="#set3" attributeName="transform" type="translate" 
                  values="0,0;10,0;20,0;30,0;20,0;10,0;0,0" dur="4s" repeatCount="indefinite"></animateTransform>   
    
</svg>
